# xmcd CD database file
#
# Track frame offsets:
#	150
#	17407
#	33750
#	48320
#	63567
#	83442
#	99167
#	116917
#	131005
#	149585
#	166457
#	180147
#	193637
#	211612
#
# Disc length: 3013 seconds
#
# Revision: 4
# Processed by: cddbd v1.5.2PL0 Copyright (c) Steve Scherf et al.
# Submitted via: CDex 1.51
#
DISCID=ae0bc30e
DTITLE=Paul Thorn - Aint Love Strange
DYEAR=2008
DGENRE=Folk
TTITLE0=Aint Love Strange
TTITLE1=Blue Stew
TTITLE2=I Have A Good Day
TTITLE3=Burn Down the Trailer Park
TTITLE4=What Do You Take Me For?
TTITLE5=Fabio and Liberace
TTITLE6=Mood Ring
TTITLE7=Black Rainbow
TTITLE8=Where Was I?
TTITLE9=A Lot of Good Reasons
TTITLE10=Help Me Out, Hook Me Up
TTITLE11=Accept My Love
TTITLE12=Aint Gonna Beg
TTITLE13=Thats All I Know Right Now
EXTD=YEAR: 2008
EXTT0=
EXTT1=
EXTT2=
EXTT3=
EXTT4=
EXTT5=
EXTT6=
EXTT7=
EXTT8=
EXTT9=
EXTT10=
EXTT11=
EXTT12=
EXTT13=
PLAYORDER=
